<svg width="289" height="51" viewBox="0 0 289 51" fill="none" xmlns="http://www.w3.org/2000/svg">
<path d="M28.6023 0.90909L23.7727 30H20.3636L8.31818 7.15909H8.03409L4.22727 30H0.704545L5.53409 0.90909H8.94318L21.0455 23.8068H21.3295L25.1364 0.90909H28.6023ZM30.8217 30L35.6513 0.90909H53.2081L52.6967 4.03409H38.6626L37.0149 13.8636H50.1399L49.6286 16.9886H36.5036L34.8558 26.875H49.1172L48.6058 30H30.8217ZM60.0121 30L56.8871 0.90909H60.4666L62.6257 24.6023H62.9098L73.0234 0.90909H77.0007L79.2734 24.6023H79.5575L89.5575 0.90909H93.1371L80.353 30H76.7166L74.1598 6.81818H73.9325L63.6484 30H60.0121ZM92.6967 30L97.5263 0.90909H115.083L114.572 4.03409H100.538L98.8899 13.8636H112.015L111.504 16.9886H98.3786L96.7308 26.875H110.992L110.481 30H92.6967ZM136.092 8.40909C136.092 6.84659 135.576 5.66288 134.543 4.85795C133.511 4.04356 132.114 3.63636 130.353 3.63636C129.065 3.63636 127.905 3.8447 126.873 4.26136C125.841 4.67803 124.998 5.25095 124.344 5.98011C123.691 6.70928 123.289 7.53788 123.137 8.46591C123.014 9.24242 123.094 9.91004 123.379 10.4688C123.663 11.018 124.065 11.4773 124.586 11.8466C125.116 12.2064 125.684 12.5047 126.29 12.7415C126.897 12.9687 127.455 13.1534 127.967 13.2955L130.808 14.0909C131.518 14.2898 132.308 14.5644 133.18 14.9148C134.051 15.2652 134.865 15.7434 135.623 16.3494C136.38 16.946 136.958 17.7131 137.356 18.6506C137.763 19.5881 137.853 20.7386 137.626 22.1023C137.361 23.6742 136.712 25.0947 135.68 26.3636C134.657 27.6326 133.303 28.6411 131.617 29.3892C129.941 30.1373 127.986 30.5114 125.751 30.5114C123.667 30.5114 121.915 30.1752 120.495 29.5028C119.084 28.8305 118.042 27.893 117.37 26.6903C116.707 25.4877 116.451 24.0909 116.603 22.5H120.239C120.145 23.5985 120.362 24.5076 120.893 25.2273C121.423 25.9375 122.162 26.4678 123.109 26.8182C124.056 27.1591 125.107 27.3295 126.262 27.3295C127.607 27.3295 128.847 27.1117 129.984 26.6761C131.129 26.2311 132.076 25.6155 132.825 24.8295C133.582 24.0341 134.046 23.1061 134.217 22.0455C134.387 21.0795 134.254 20.2936 133.819 19.6875C133.383 19.0814 132.754 18.589 131.93 18.2102C131.106 17.8314 130.201 17.5 129.217 17.2159L125.808 16.1932C123.648 15.5398 122.005 14.607 120.879 13.3949C119.761 12.1828 119.359 10.5966 119.671 8.63636C119.955 7.00757 120.642 5.58712 121.731 4.375C122.82 3.15341 124.169 2.20644 125.779 1.53409C127.389 0.852272 129.122 0.511363 130.978 0.511363C132.853 0.511363 134.458 0.852272 135.793 1.53409C137.129 2.20644 138.123 3.1392 138.776 4.33239C139.43 5.5161 139.671 6.875 139.501 8.40909H136.092ZM144.838 4.03409L145.349 0.90909H167.168L166.656 4.03409H157.509L153.19 30H149.668L153.986 4.03409H144.838ZM196.042 0.90909L191.212 30H185.246L176.482 13.2102H176.283L173.485 30H166.454L171.283 0.90909H177.335L186.028 17.6705H186.269L189.025 0.90909H196.042ZM195.634 30L200.463 0.90909H220.747L219.781 6.61932H206.528L205.562 12.5852H217.778L216.812 18.3097H204.597L203.631 24.2898H216.884L215.918 30H195.634ZM227.295 30L223.659 0.90909H231.429L232.679 19.9716H232.92L241.074 0.90909H247.409L249.284 20.0142H249.511L257.068 0.90909H264.824L251.543 30H244.767L242.48 12.358H242.253L234.057 30H227.295ZM281.624 9.6875C281.7 8.61742 281.416 7.78883 280.772 7.2017C280.138 6.61458 279.134 6.32102 277.761 6.32102C276.852 6.32102 276.075 6.43939 275.431 6.67614C274.787 6.90341 274.281 7.22538 273.911 7.64205C273.542 8.04924 273.31 8.52273 273.215 9.0625C273.13 9.48864 273.154 9.86742 273.286 10.1989C273.419 10.5303 273.651 10.8239 273.982 11.0795C274.323 11.3352 274.745 11.5578 275.246 11.7472C275.758 11.9366 276.331 12.1023 276.965 12.2443L279.352 12.8125C280.734 13.125 281.932 13.5417 282.945 14.0625C283.968 14.5739 284.797 15.1941 285.431 15.9233C286.066 16.643 286.501 17.4716 286.738 18.4091C286.975 19.3466 286.994 20.3977 286.795 21.5625C286.492 23.3996 285.767 24.9763 284.621 26.2926C283.485 27.6089 281.998 28.6174 280.161 29.3182C278.334 30.0189 276.208 30.3693 273.783 30.3693C271.359 30.3693 269.299 30.0047 267.604 29.2756C265.919 28.5369 264.697 27.4242 263.94 25.9375C263.182 24.4508 262.978 22.5758 263.329 20.3125H270.048C269.943 21.25 270.062 22.0312 270.403 22.6562C270.753 23.2812 271.293 23.7547 272.022 24.0767C272.751 24.3987 273.632 24.5597 274.664 24.5597C275.611 24.5597 276.44 24.4318 277.15 24.1761C277.87 23.9205 278.442 23.5653 278.869 23.1108C279.304 22.6562 279.569 22.1354 279.664 21.5483C279.759 21.0085 279.669 20.5398 279.394 20.142C279.129 19.7443 278.674 19.3987 278.031 19.1051C277.396 18.8116 276.563 18.5464 275.531 18.3097L272.619 17.5994C270.213 17.0123 268.39 16.0748 267.15 14.7869C265.919 13.4991 265.483 11.7519 265.843 9.54545C266.146 7.73674 266.894 6.1553 268.087 4.80114C269.29 3.44697 270.81 2.39583 272.647 1.64773C274.494 0.890151 276.525 0.511363 278.741 0.511363C280.995 0.511363 282.888 0.894885 284.423 1.66193C285.966 2.41951 287.079 3.48958 287.761 4.87216C288.452 6.24526 288.651 7.85038 288.357 9.6875H281.624Z" fill="white"/>
<path d="M29.6996 42.9091C29.6996 43.9697 29.5107 44.8928 29.1328 45.6783C28.755 46.4605 28.2346 47.067 27.5717 47.4979C26.9122 47.9254 26.1532 48.1392 25.2947 48.1392C24.4363 48.1392 23.6757 47.9254 23.0128 47.4979C22.3532 47.067 21.8345 46.4605 21.4567 45.6783C21.0821 44.8928 20.8949 43.9697 20.8949 42.9091C20.8949 41.8485 21.0821 40.9271 21.4567 40.1449C21.8345 39.3594 22.3549 38.7528 23.0178 38.3253C23.6806 37.8944 24.4396 37.679 25.2947 37.679C26.1532 37.679 26.9122 37.8944 27.5717 38.3253C28.2346 38.7528 28.755 39.3594 29.1328 40.1449C29.5107 40.9271 29.6996 41.8485 29.6996 42.9091ZM28.7947 42.9091C28.7947 41.9976 28.6423 41.2171 28.3374 40.5675C28.0324 39.9145 27.6165 39.4157 27.0895 39.071C26.5625 38.7263 25.9643 38.554 25.2947 38.554C24.6286 38.554 24.032 38.7263 23.505 39.071C22.978 39.4157 22.5604 39.9129 22.2521 40.5625C21.9472 41.2121 21.7947 41.9943 21.7947 42.9091C21.7947 43.8205 21.9472 44.6011 22.2521 45.2507C22.5571 45.9003 22.973 46.3991 23.5 46.7472C24.027 47.0919 24.6252 47.2642 25.2947 47.2642C25.9643 47.2642 26.5625 47.0919 27.0895 46.7472C27.6198 46.4025 28.0374 45.9053 28.3423 45.2557C28.6473 44.6027 28.7981 43.8205 28.7947 42.9091ZM48.8122 42.0391L48.0018 42.2678C47.9223 42.0391 47.8096 41.8319 47.6638 41.6463C47.5179 41.4607 47.3274 41.3132 47.092 41.2038C46.86 41.0945 46.5717 41.0398 46.227 41.0398C45.7099 41.0398 45.2857 41.1624 44.9543 41.4077C44.6228 41.6529 44.4571 41.9695 44.4571 42.3572C44.4571 42.6854 44.5698 42.9522 44.7952 43.1577C45.0239 43.3598 45.3752 43.5206 45.8491 43.6399L47.0025 43.9233C47.6422 44.0791 48.1212 44.326 48.4393 44.6641C48.7608 45.0021 48.9216 45.4264 48.9216 45.9368C48.9216 46.3677 48.8023 46.7505 48.5636 47.0852C48.325 47.42 47.9919 47.6835 47.5643 47.8757C47.1401 48.0646 46.6479 48.1591 46.0878 48.1591C45.342 48.1591 44.7272 47.9917 44.2433 47.657C43.7594 47.3189 43.4495 46.8317 43.3136 46.1953L44.1638 45.9865C44.2731 46.4406 44.4869 46.7836 44.8051 47.0156C45.1266 47.2476 45.5492 47.3636 46.0729 47.3636C46.6595 47.3636 47.1285 47.2327 47.4798 46.9709C47.8311 46.7057 48.0068 46.3743 48.0068 45.9766C48.0068 45.6683 47.9041 45.4098 47.6986 45.201C47.4931 44.9889 47.1815 44.8331 46.7639 44.7337L45.516 44.4354C44.8532 44.2763 44.3626 44.0244 44.0445 43.6797C43.7263 43.335 43.5672 42.9074 43.5672 42.397C43.5672 41.9761 43.6815 41.6065 43.9102 41.2884C44.1389 40.9669 44.4538 40.715 44.8548 40.5327C45.2559 40.3504 45.7133 40.2592 46.227 40.2592C46.9263 40.2592 47.4848 40.4183 47.9024 40.7365C48.3233 41.0514 48.6266 41.4856 48.8122 42.0391ZM57.9366 48.1591C57.224 48.1591 56.6075 47.9934 56.0872 47.6619C55.5668 47.3272 55.1641 46.8648 54.8791 46.2749C54.5974 45.6816 54.4565 44.9988 54.4565 44.2266C54.4565 43.4576 54.5974 42.7749 54.8791 42.1783C55.1641 41.5784 55.5569 41.1094 56.0574 40.7713C56.5611 40.4299 57.1428 40.2592 57.8024 40.2592C58.2167 40.2592 58.6161 40.3355 59.0005 40.4879C59.385 40.6371 59.7297 40.8674 60.0346 41.179C60.3429 41.4872 60.5865 41.8767 60.7655 42.3473C60.9444 42.8146 61.0339 43.3681 61.0339 44.0078V44.4453H55.068V43.6648H60.1291C60.1291 43.1742 60.0297 42.7334 59.8308 42.3423C59.6352 41.9479 59.3618 41.6364 59.0105 41.4077C58.6625 41.179 58.2598 41.0646 57.8024 41.0646C57.3185 41.0646 56.8926 41.1939 56.5247 41.4524C56.1568 41.7109 55.8684 42.0523 55.6596 42.4766C55.4541 42.9008 55.3497 43.3648 55.3464 43.8686V44.3359C55.3464 44.9425 55.4508 45.4728 55.6596 45.9268C55.8718 46.3776 56.1717 46.7273 56.5595 46.9759C56.9473 47.2244 57.4063 47.3487 57.9366 47.3487C58.2979 47.3487 58.6144 47.2924 58.8862 47.1797C59.1613 47.067 59.3916 46.9162 59.5772 46.7273C59.7662 46.535 59.9087 46.3246 60.0048 46.0959L60.845 46.3693C60.729 46.6908 60.5384 46.9875 60.2733 47.2592C60.0114 47.531 59.6833 47.7498 59.2889 47.9155C58.8978 48.0779 58.447 48.1591 57.9366 48.1591ZM71.8263 45.0817V40.3636H72.7112V48H71.8263V46.7322H71.7567C71.5777 47.1233 71.2943 47.4498 70.9066 47.7116C70.5188 47.9702 70.0448 48.0994 69.4847 48.0994C68.9975 48.0994 68.5649 47.9934 68.1871 47.7812C67.8093 47.5658 67.5126 47.2509 67.2972 46.8366C67.0817 46.4223 66.974 45.9136 66.974 45.3104V40.3636H67.859V45.2557C67.859 45.8523 68.0346 46.3329 68.386 46.6974C68.7373 47.0587 69.188 47.2393 69.7382 47.2393C70.0829 47.2393 70.4144 47.1565 70.7325 46.9908C71.0507 46.825 71.3126 46.5831 71.5181 46.2649C71.7236 45.9434 71.8263 45.549 71.8263 45.0817ZM86.9716 50.8636V40.3636H87.8317V41.8203H87.9361C88.0422 41.5916 88.188 41.358 88.3736 41.1193C88.5592 40.8774 88.8045 40.6735 89.1094 40.5078C89.4176 40.3421 89.8054 40.2592 90.2727 40.2592C90.9025 40.2592 91.4527 40.425 91.9233 40.7564C92.3973 41.0845 92.7652 41.5452 93.027 42.1385C93.2922 42.7285 93.4247 43.4162 93.4247 44.2017C93.4247 44.9905 93.2922 45.6816 93.027 46.2749C92.7652 46.8681 92.3973 47.3305 91.9233 47.6619C91.4527 47.9934 90.9058 48.1591 90.2827 48.1591C89.822 48.1591 89.4359 48.0762 89.1243 47.9105C88.8161 47.7448 88.5658 47.541 88.3736 47.299C88.1847 47.0537 88.0388 46.8151 87.9361 46.5831H87.8566V50.8636H86.9716ZM87.8466 44.1868C87.8466 44.8033 87.9378 45.3501 88.12 45.8274C88.3057 46.3014 88.5708 46.6742 88.9155 46.946C89.2635 47.2145 89.6844 47.3487 90.1783 47.3487C90.6854 47.3487 91.1129 47.2095 91.461 46.9311C91.8123 46.6494 92.0791 46.2699 92.2614 45.7926C92.447 45.3153 92.5398 44.7801 92.5398 44.1868C92.5398 43.6001 92.4486 43.0715 92.2664 42.6009C92.0874 42.1302 91.8222 41.7573 91.4709 41.4822C91.1196 41.2038 90.6887 41.0646 90.1783 41.0646C89.6811 41.0646 89.2585 41.1989 88.9105 41.4673C88.5625 41.7325 88.2974 42.1004 88.1151 42.571C87.9361 43.0384 87.8466 43.5769 87.8466 44.1868ZM102.324 48.1591C101.665 48.1591 101.081 47.9917 100.574 47.657C100.07 47.3222 99.676 46.8598 99.3909 46.2699C99.1059 45.6766 98.9634 44.9922 98.9634 44.2166C98.9634 43.4344 99.1059 42.7467 99.3909 42.1534C99.676 41.5568 100.07 41.0928 100.574 40.7614C101.081 40.4266 101.665 40.2592 102.324 40.2592C102.984 40.2592 103.565 40.4266 104.069 40.7614C104.573 41.0961 104.967 41.5601 105.252 42.1534C105.541 42.7467 105.685 43.4344 105.685 44.2166C105.685 44.9922 105.542 45.6766 105.257 46.2699C104.972 46.8598 104.576 47.3222 104.069 47.657C103.565 47.9917 102.984 48.1591 102.324 48.1591ZM102.324 47.3487C102.854 47.3487 103.304 47.2062 103.671 46.9212C104.039 46.6361 104.318 46.2566 104.507 45.7827C104.699 45.3087 104.795 44.7867 104.795 44.2166C104.795 43.6465 104.699 43.1229 104.507 42.6456C104.318 42.1683 104.039 41.7855 103.671 41.4972C103.304 41.2088 102.854 41.0646 102.324 41.0646C101.797 41.0646 101.348 41.2088 100.977 41.4972C100.609 41.7855 100.329 42.1683 100.137 42.6456C99.9478 43.1229 99.8533 43.6465 99.8533 44.2166C99.8533 44.7867 99.9478 45.3087 100.137 45.7827C100.329 46.2566 100.609 46.6361 100.977 46.9212C101.345 47.2062 101.794 47.3487 102.324 47.3487ZM111.618 48V40.3636H112.478V41.5369H112.542C112.695 41.1525 112.96 40.8426 113.338 40.6072C113.719 40.3686 114.15 40.2493 114.63 40.2493C114.703 40.2493 114.785 40.2509 114.874 40.2543C114.963 40.2576 115.038 40.2609 115.098 40.2642V41.1641C115.058 41.1574 114.988 41.1475 114.889 41.1342C114.789 41.121 114.682 41.1143 114.566 41.1143C114.168 41.1143 113.813 41.1989 113.502 41.3679C113.194 41.5336 112.95 41.764 112.771 42.0589C112.592 42.3539 112.503 42.6903 112.503 43.0682V48H111.618ZM124.084 40.3636V41.1342H120.44V40.3636H124.084ZM121.579 38.5341H122.468V46.0064C122.468 46.3246 122.523 46.5748 122.632 46.7571C122.742 46.9361 122.884 47.0637 123.06 47.1399C123.236 47.2128 123.423 47.2493 123.622 47.2493C123.738 47.2493 123.837 47.2427 123.92 47.2294C124.003 47.2128 124.076 47.1963 124.139 47.1797L124.328 47.9801C124.242 48.0133 124.136 48.0431 124.01 48.0696C123.884 48.0994 123.728 48.1143 123.542 48.1143C123.217 48.1143 122.904 48.0431 122.603 47.9006C122.304 47.758 122.059 47.5459 121.867 47.2642C121.675 46.9825 121.579 46.6328 121.579 46.2152V38.5341ZM132.217 48.174C131.756 48.174 131.335 48.0845 130.954 47.9055C130.573 47.7232 130.27 47.4614 130.044 47.12C129.819 46.7753 129.706 46.3577 129.706 45.8672C129.706 45.4893 129.777 45.1712 129.92 44.9126C130.062 44.6541 130.265 44.442 130.526 44.2763C130.788 44.1106 131.098 43.9796 131.456 43.8835C131.814 43.7874 132.208 43.7128 132.639 43.6598C133.067 43.6068 133.428 43.5604 133.723 43.5206C134.021 43.4808 134.248 43.4179 134.404 43.3317C134.56 43.2455 134.638 43.1063 134.638 42.9141V42.7351C134.638 42.2147 134.482 41.8054 134.171 41.5071C133.862 41.2055 133.418 41.0547 132.838 41.0547C132.288 41.0547 131.839 41.1757 131.491 41.4176C131.146 41.6596 130.904 41.9446 130.765 42.2727L129.925 41.9695C130.097 41.5518 130.336 41.2187 130.641 40.9702C130.946 40.7183 131.287 40.5376 131.665 40.4283C132.043 40.3156 132.426 40.2592 132.813 40.2592C133.105 40.2592 133.408 40.2973 133.723 40.3736C134.041 40.4498 134.336 40.5824 134.608 40.7713C134.88 40.9569 135.1 41.2171 135.269 41.5518C135.438 41.8833 135.523 42.3042 135.523 42.8146V48H134.638V46.7919H134.583C134.477 47.0173 134.32 47.236 134.111 47.4482C133.902 47.6603 133.64 47.8343 133.325 47.9702C133.011 48.1061 132.641 48.174 132.217 48.174ZM132.336 47.3636C132.807 47.3636 133.214 47.2592 133.559 47.0504C133.904 46.8416 134.169 46.5649 134.355 46.2202C134.543 45.8722 134.638 45.4893 134.638 45.0717V43.968C134.572 44.031 134.461 44.0874 134.305 44.1371C134.152 44.1868 133.975 44.2315 133.773 44.2713C133.574 44.3078 133.375 44.3393 133.176 44.3658C132.977 44.3923 132.798 44.4155 132.639 44.4354C132.208 44.4884 131.841 44.5713 131.536 44.6839C131.231 44.7966 130.997 44.9524 130.835 45.1513C130.672 45.3468 130.591 45.5987 130.591 45.907C130.591 46.371 130.757 46.7306 131.088 46.9858C131.42 47.2377 131.836 47.3636 132.336 47.3636ZM142.752 37.8182V48H141.867V37.8182H142.752ZM159.76 48.1591C159.134 48.1591 158.585 47.9934 158.115 47.6619C157.644 47.3305 157.276 46.8681 157.011 46.2749C156.749 45.6816 156.618 44.9905 156.618 44.2017C156.618 43.4162 156.749 42.7285 157.011 42.1385C157.276 41.5452 157.646 41.0845 158.12 40.7564C158.594 40.425 159.145 40.2592 159.775 40.2592C160.239 40.2592 160.625 40.3421 160.934 40.5078C161.242 40.6702 161.489 40.8724 161.674 41.1143C161.86 41.3563 162.004 41.5916 162.107 41.8203H162.186V37.8182H163.076V48H162.211V46.5831H162.107C162.004 46.8151 161.858 47.0537 161.669 47.299C161.48 47.541 161.23 47.7448 160.919 47.9105C160.61 48.0762 160.224 48.1591 159.76 48.1591ZM159.865 47.3487C160.359 47.3487 160.779 47.2145 161.127 46.946C161.475 46.6742 161.741 46.3014 161.923 45.8274C162.109 45.3501 162.201 44.8033 162.201 44.1868C162.201 43.5769 162.11 43.0384 161.928 42.571C161.746 42.1004 161.48 41.7325 161.132 41.4673C160.784 41.1989 160.362 41.0646 159.865 41.0646C159.354 41.0646 158.923 41.2038 158.572 41.4822C158.224 41.7573 157.959 42.1302 157.777 42.6009C157.598 43.0715 157.508 43.6001 157.508 44.1868C157.508 44.7801 157.599 45.3153 157.782 45.7926C157.964 46.2699 158.229 46.6494 158.577 46.9311C158.928 47.2095 159.358 47.3487 159.865 47.3487ZM172.674 48.1591C171.962 48.1591 171.345 47.9934 170.825 47.6619C170.304 47.3272 169.902 46.8648 169.617 46.2749C169.335 45.6816 169.194 44.9988 169.194 44.2266C169.194 43.4576 169.335 42.7749 169.617 42.1783C169.902 41.5784 170.295 41.1094 170.795 40.7713C171.299 40.4299 171.88 40.2592 172.54 40.2592C172.954 40.2592 173.354 40.3355 173.738 40.4879C174.123 40.6371 174.467 40.8674 174.772 41.179C175.081 41.4872 175.324 41.8767 175.503 42.3473C175.682 42.8146 175.772 43.3681 175.772 44.0078V44.4453H169.806V43.6648H174.867C174.867 43.1742 174.767 42.7334 174.568 42.3423C174.373 41.9479 174.099 41.6364 173.748 41.4077C173.4 41.179 172.997 41.0646 172.54 41.0646C172.056 41.0646 171.63 41.1939 171.262 41.4524C170.894 41.7109 170.606 42.0523 170.397 42.4766C170.192 42.9008 170.087 43.3648 170.084 43.8686V44.3359C170.084 44.9425 170.188 45.4728 170.397 45.9268C170.609 46.3776 170.909 46.7273 171.297 46.9759C171.685 47.2244 172.144 47.3487 172.674 47.3487C173.036 47.3487 173.352 47.2924 173.624 47.1797C173.899 47.067 174.129 46.9162 174.315 46.7273C174.504 46.535 174.646 46.3246 174.742 46.0959L175.583 46.3693C175.467 46.6908 175.276 46.9875 175.011 47.2592C174.749 47.531 174.421 47.7498 174.027 47.9155C173.635 48.0779 173.185 48.1591 172.674 48.1591ZM190.524 43.2273V48H189.639V40.3636H190.499V41.5618H190.579C190.758 41.1707 191.036 40.8575 191.414 40.6222C191.795 40.3835 192.266 40.2642 192.826 40.2642C193.34 40.2642 193.79 40.3719 194.178 40.5874C194.569 40.7995 194.873 41.1127 195.088 41.527C195.307 41.9413 195.416 42.45 195.416 43.0533V48H194.531V43.108C194.531 42.4815 194.356 41.986 194.004 41.6214C193.656 41.2569 193.189 41.0746 192.602 41.0746C192.201 41.0746 191.845 41.1607 191.533 41.3331C191.222 41.5054 190.975 41.754 190.793 42.0788C190.614 42.4003 190.524 42.7831 190.524 43.2273ZM204.705 48.1591C204.045 48.1591 203.462 47.9917 202.955 47.657C202.451 47.3222 202.056 46.8598 201.771 46.2699C201.486 45.6766 201.344 44.9922 201.344 44.2166C201.344 43.4344 201.486 42.7467 201.771 42.1534C202.056 41.5568 202.451 41.0928 202.955 40.7614C203.462 40.4266 204.045 40.2592 204.705 40.2592C205.364 40.2592 205.946 40.4266 206.45 40.7614C206.953 41.0961 207.348 41.5601 207.633 42.1534C207.921 42.7467 208.065 43.4344 208.065 44.2166C208.065 44.9922 207.923 45.6766 207.638 46.2699C207.353 46.8598 206.957 47.3222 206.45 47.657C205.946 47.9917 205.364 48.1591 204.705 48.1591ZM204.705 47.3487C205.235 47.3487 205.684 47.2062 206.052 46.9212C206.42 46.6361 206.698 46.2566 206.887 45.7827C207.079 45.3087 207.176 44.7867 207.176 44.2166C207.176 43.6465 207.079 43.1229 206.887 42.6456C206.698 42.1683 206.42 41.7855 206.052 41.4972C205.684 41.2088 205.235 41.0646 204.705 41.0646C204.178 41.0646 203.729 41.2088 203.357 41.4972C202.989 41.7855 202.709 42.1683 202.517 42.6456C202.328 43.1229 202.234 43.6465 202.234 44.2166C202.234 44.7867 202.328 45.3087 202.517 45.7827C202.709 46.2566 202.989 46.6361 203.357 46.9212C203.725 47.2062 204.174 47.3487 204.705 47.3487ZM217.006 40.3636V41.1342H213.362V40.3636H217.006ZM214.5 38.5341H215.39V46.0064C215.39 46.3246 215.445 46.5748 215.554 46.7571C215.664 46.9361 215.806 47.0637 215.982 47.1399C216.157 47.2128 216.345 47.2493 216.544 47.2493C216.66 47.2493 216.759 47.2427 216.842 47.2294C216.925 47.2128 216.998 47.1963 217.061 47.1797L217.25 47.9801C217.163 48.0133 217.057 48.0431 216.931 48.0696C216.805 48.0994 216.65 48.1143 216.464 48.1143C216.139 48.1143 215.826 48.0431 215.524 47.9006C215.226 47.758 214.981 47.5459 214.789 47.2642C214.596 46.9825 214.5 46.6328 214.5 46.2152V38.5341ZM223.016 48V40.3636H223.906V48H223.016ZM223.468 39.0511C223.286 39.0511 223.13 38.9898 223.001 38.8672C222.871 38.7412 222.807 38.5904 222.807 38.4148C222.807 38.2391 222.871 38.09 223.001 37.9673C223.13 37.8414 223.286 37.7784 223.468 37.7784C223.65 37.7784 223.806 37.8414 223.935 37.9673C224.065 38.09 224.129 38.2391 224.129 38.4148C224.129 38.5904 224.065 38.7412 223.935 38.8672C223.806 38.9898 223.65 39.0511 223.468 39.0511ZM233.219 48.1591C232.536 48.1591 231.941 47.9884 231.434 47.647C230.93 47.3056 230.539 46.8383 230.261 46.245C229.982 45.6518 229.843 44.9756 229.843 44.2166C229.843 43.451 229.984 42.7699 230.266 42.1733C230.551 41.5767 230.945 41.1094 231.449 40.7713C231.953 40.4299 232.538 40.2592 233.204 40.2592C233.714 40.2592 234.177 40.3587 234.591 40.5575C235.005 40.7531 235.347 41.0298 235.615 41.3878C235.887 41.7424 236.058 42.1567 236.127 42.6307H235.232C235.14 42.1998 234.916 41.8319 234.561 41.527C234.21 41.2187 233.762 41.0646 233.219 41.0646C232.732 41.0646 232.301 41.1972 231.926 41.4624C231.552 41.7242 231.258 42.0904 231.046 42.5611C230.837 43.0284 230.733 43.5703 230.733 44.1868C230.733 44.8066 230.836 45.3551 231.041 45.8324C231.247 46.3063 231.535 46.6776 231.906 46.946C232.281 47.2145 232.718 47.3487 233.219 47.3487C233.557 47.3487 233.865 47.2857 234.144 47.1598C234.425 47.0305 234.661 46.8482 234.85 46.6129C235.042 46.3776 235.171 46.0975 235.237 45.7727H236.132C236.066 46.2334 235.902 46.6444 235.64 47.0057C235.382 47.3636 235.045 47.6454 234.631 47.8509C234.22 48.0563 233.749 48.1591 233.219 48.1591ZM242.029 48V40.3636H242.919V48H242.029ZM242.481 39.0511C242.299 39.0511 242.143 38.9898 242.014 38.8672C241.885 38.7412 241.82 38.5904 241.82 38.4148C241.82 38.2391 241.885 38.09 242.014 37.9673C242.143 37.8414 242.299 37.7784 242.481 37.7784C242.664 37.7784 242.819 37.8414 242.949 37.9673C243.078 38.09 243.142 38.2391 243.142 38.4148C243.142 38.5904 243.078 38.7412 242.949 38.8672C242.819 38.9898 242.664 39.0511 242.481 39.0511ZM251.382 48.174C250.921 48.174 250.5 48.0845 250.119 47.9055C249.738 47.7232 249.435 47.4614 249.209 47.12C248.984 46.7753 248.871 46.3577 248.871 45.8672C248.871 45.4893 248.943 45.1712 249.085 44.9126C249.228 44.6541 249.43 44.442 249.692 44.2763C249.953 44.1106 250.263 43.9796 250.621 43.8835C250.979 43.7874 251.374 43.7128 251.805 43.6598C252.232 43.6068 252.593 43.5604 252.888 43.5206C253.187 43.4808 253.414 43.4179 253.569 43.3317C253.725 43.2455 253.803 43.1063 253.803 42.9141V42.7351C253.803 42.2147 253.647 41.8054 253.336 41.5071C253.028 41.2055 252.583 41.0547 252.003 41.0547C251.453 41.0547 251.004 41.1757 250.656 41.4176C250.311 41.6596 250.069 41.9446 249.93 42.2727L249.09 41.9695C249.262 41.5518 249.501 41.2187 249.806 40.9702C250.111 40.7183 250.452 40.5376 250.83 40.4283C251.208 40.3156 251.591 40.2592 251.979 40.2592C252.27 40.2592 252.573 40.2973 252.888 40.3736C253.206 40.4498 253.501 40.5824 253.773 40.7713C254.045 40.9569 254.265 41.2171 254.434 41.5518C254.604 41.8833 254.688 42.3042 254.688 42.8146V48H253.803V46.7919H253.748C253.642 47.0173 253.485 47.236 253.276 47.4482C253.067 47.6603 252.805 47.8343 252.491 47.9702C252.176 48.1061 251.806 48.174 251.382 48.174ZM251.501 47.3636C251.972 47.3636 252.38 47.2592 252.724 47.0504C253.069 46.8416 253.334 46.5649 253.52 46.2202C253.709 45.8722 253.803 45.4893 253.803 45.0717V43.968C253.737 44.031 253.626 44.0874 253.47 44.1371C253.318 44.1868 253.14 44.2315 252.938 44.2713C252.739 44.3078 252.54 44.3393 252.341 44.3658C252.143 44.3923 251.964 44.4155 251.805 44.4354C251.374 44.4884 251.006 44.5713 250.701 44.6839C250.396 44.7966 250.162 44.9524 250 45.1513C249.837 45.3468 249.756 45.5987 249.756 45.907C249.756 46.371 249.922 46.7306 250.253 46.9858C250.585 47.2377 251.001 47.3636 251.501 47.3636ZM266.163 42.0391L265.352 42.2678C265.273 42.0391 265.16 41.8319 265.014 41.6463C264.868 41.4607 264.678 41.3132 264.443 41.2038C264.211 41.0945 263.922 41.0398 263.578 41.0398C263.06 41.0398 262.636 41.1624 262.305 41.4077C261.973 41.6529 261.808 41.9695 261.808 42.3572C261.808 42.6854 261.92 42.9522 262.146 43.1577C262.374 43.3598 262.726 43.5206 263.2 43.6399L264.353 43.9233C264.993 44.0791 265.472 44.326 265.79 44.6641C266.111 45.0021 266.272 45.4264 266.272 45.9368C266.272 46.3677 266.153 46.7505 265.914 47.0852C265.676 47.42 265.342 47.6835 264.915 47.8757C264.491 48.0646 263.998 48.1591 263.438 48.1591C262.693 48.1591 262.078 47.9917 261.594 47.657C261.11 47.3189 260.8 46.8317 260.664 46.1953L261.514 45.9865C261.624 46.4406 261.837 46.7836 262.156 47.0156C262.477 47.2476 262.9 47.3636 263.423 47.3636C264.01 47.3636 264.479 47.2327 264.83 46.9709C265.182 46.7057 265.357 46.3743 265.357 45.9766C265.357 45.6683 265.255 45.4098 265.049 45.201C264.844 44.9889 264.532 44.8331 264.114 44.7337L262.867 44.4354C262.204 44.2763 261.713 44.0244 261.395 43.6797C261.077 43.335 260.918 42.9074 260.918 42.397C260.918 41.9761 261.032 41.6065 261.261 41.2884C261.489 40.9669 261.804 40.715 262.205 40.5327C262.606 40.3504 263.064 40.2592 263.578 40.2592C264.277 40.2592 264.835 40.4183 265.253 40.7365C265.674 41.0514 265.977 41.4856 266.163 42.0391Z" fill="white"/>
</svg>
